<?xml version="1.0" encoding="utf-8"?>
<!-- Generator: Adobe Illustrator 14.0.0, SVG Export Plug-In . SVG Version: 6.00 Build 43363)  -->
<!DOCTYPE svg PUBLIC "-//W3C//DTD SVG 1.1//EN" "http://www.w3.org/Graphics/SVG/1.1/DTD/svg11.dtd">
<svg version="1.1" id="Layer_1" xmlns="http://www.w3.org/2000/svg" xmlns:xlink="http://www.w3.org/1999/xlink" x="0px" y="0px"
	 width="512px" height="512px" viewBox="83 63 512 512" enable-background="new 83 63 512 512" xml:space="preserve">
<path fill="#DD271D" d="M479.547,401.842l-61.748-55.894c29.192-36.341,38.823-84.925,22.87-145.493
	C412.096,91.997,336.16,51.893,229.67,79.945l-121.776,32.078l72.821,276.447l-42.356,84.577l-14.788,36.108l113.938,62.338
	L197.535,496.2l28.621-63.677l45.213-11.913l14.378,83.092l9.539,37.836l128.7-17.482l-76.878-36.858l-17.944-82.877
	c15.611-5.488,29.917-12.03,42.787-19.605l67.345,66.282l29.794,25.198l94.413-89.191L479.547,401.842z M281.351,364.21
	l-27.115,7.14l-60.132-228.264l37.965-9.999c69.516-18.31,114.781,21.434,132.182,87.492
	C384.123,296.016,356.289,344.47,281.351,364.21z"/>
</svg>
